<?xml version="1.0" encoding="UTF-8" standalone="no"?>
<svg width="35px" height="18px" viewBox="0 0 35 18" version="1.1" xmlns="http://www.w3.org/2000/svg" xmlns:xlink="http://www.w3.org/1999/xlink">
    <!-- Generator: Sketch 41 (35326) - http://www.bohemiancoding.com/sketch -->
    <title>right-arrow</title>
    <desc>Created with Sketch.</desc>
    <defs></defs>
    <g id="Page-1" stroke="none" stroke-width="1" fill="none" fill-rule="evenodd">
        <g id="landing-1" transform="translate(-260.000000, -946.000000)" fill="#9B9B9B">
            <g id="featres" transform="translate(0.000000, 632.000000)">
                <g id="right-arrow" transform="translate(260.000000, 314.000000)">
                    <path d="M26.5664062,0.788086957 C26.23125,0.440608696 25.6734375,0.440608696 25.3265625,0.788086957 C24.9914062,1.12382609 24.9914062,1.6826087 25.3265625,2.01756522 L31.6132812,8.31521739 L0.86796875,8.31521739 C0.384375,8.316 0,8.70104348 0,9.18547826 C0,9.66991304 0.384375,10.0674783 0.86796875,10.0674783 L31.6132812,10.0674783 L25.3265625,16.3533913 C24.9914062,16.7008696 24.9914062,17.2604348 25.3265625,17.5953913 C25.6734375,17.9428696 26.2320312,17.9428696 26.5664062,17.5953913 L34.3414062,9.80686957 C34.6882812,9.47113043 34.6882812,8.91234783 34.3414062,8.5773913 L26.5664062,0.788086957 Z" id="Shape"></path>
                </g>
            </g>
        </g>
    </g>
</svg>