<?xml version="1.0" encoding="UTF-8" standalone="no"?>
<svg width="45px" height="25px" viewBox="0 0 45 25" version="1.1" xmlns="http://www.w3.org/2000/svg" xmlns:xlink="http://www.w3.org/1999/xlink">
    <!-- Generator: Sketch 41 (35326) - http://www.bohemiancoding.com/sketch -->
    <title>group</title>
    <desc>Created with Sketch.</desc>
    <defs></defs>
    <g id="Page-1" stroke="none" stroke-width="1" fill="none" fill-rule="evenodd">
        <g id="landing-1" transform="translate(-672.000000, -2042.000000)" fill="#4A4A4A">
            <g id="Group-4" transform="translate(82.000000, 2039.000000)">
                <g id="group" transform="translate(590.000000, 3.000000)">
                    <path d="M31.2795918,9.24365942 L31.2795918,12.6585145 C31.2795918,13.3016304 31.5367347,13.8994565 31.977551,14.3523551 L31.977551,15.5117754 C31.977551,16.0099638 32.3816327,16.4085145 32.8867347,16.4085145 C33.3918367,16.4085145 33.7959184,16.0099638 33.7959184,15.5117754 L33.7959184,13.9356884 C33.7959184,13.6367754 33.6397959,13.3559783 33.3918367,13.1929348 C33.2081633,13.0751812 33.0979592,12.8759058 33.0979592,12.6585145 L33.0979592,9.24365942 C33.0979592,8.04800725 34.0897959,7.06974638 35.3020408,7.06974638 L36.0459184,7.06974638 C37.2581633,7.06974638 38.25,8.04800725 38.25,9.24365942 L38.25,12.6585145 C38.25,12.8759058 38.1397959,13.0751812 37.9561224,13.1929348 C37.6989796,13.3559783 37.5520408,13.6367754 37.5520408,13.9356884 L37.5520408,17.2237319 C37.5520408,17.6222826 37.7908163,17.9936594 38.1489796,18.1657609 C38.5806122,18.3740942 40.8214286,19.4882246 42.8969388,21.1639493 C43.0714286,21.3088768 43.172449,21.5172101 43.172449,21.7527174 L43.172449,23.1929348 L36.7989796,23.1929348 C36.2938776,23.1929348 35.8897959,23.5914855 35.8897959,24.0896739 C35.8897959,24.5878623 36.2938776,24.986413 36.7989796,24.986413 L44.0816327,24.986413 C44.5867347,24.986413 44.9908163,24.5878623 44.9908163,24.0896739 L44.9908163,21.7527174 C44.9908163,20.9827899 44.6510204,20.2672101 44.044898,19.7780797 C42.2173469,18.3016304 40.2612245,17.2237319 39.3704082,16.7617754 L39.3704082,14.3432971 C39.8112245,13.8903986 40.0683673,13.2925725 40.0683673,12.6494565 L40.0683673,9.23460145 C40.0683673,7.04257246 38.2591837,5.26721014 36.0459184,5.26721014 L35.3020408,5.26721014 C33.0887755,5.27626812 31.2795918,7.05163043 31.2795918,9.24365942 L31.2795918,9.24365942 Z" id="Shape"></path>
                    <path d="M0.909183673,24.986413 L8.30204082,24.986413 C8.80714286,24.986413 9.21122449,24.5878623 9.21122449,24.0896739 C9.21122449,23.5914855 8.80714286,23.1929348 8.30204082,23.1929348 L1.81836735,23.1929348 L1.81836735,21.7527174 C1.81836735,21.5262681 1.91938776,21.3088768 2.09387755,21.1639493 C4.16020408,19.4882246 6.41020408,18.3650362 6.84183673,18.1657609 C7.20918367,17.9936594 7.43877551,17.6222826 7.43877551,17.2237319 L7.43877551,13.9356884 C7.43877551,13.6367754 7.28265306,13.3559783 7.03469388,13.1929348 C6.85102041,13.0751812 6.74081633,12.8759058 6.74081633,12.6585145 L6.74081633,9.24365942 C6.74081633,8.04800725 7.73265306,7.06974638 8.94489796,7.06974638 L9.68877551,7.06974638 C10.9010204,7.06974638 11.8928571,8.04800725 11.8928571,9.24365942 L11.8928571,12.6585145 C11.8928571,12.8759058 11.7826531,13.0751812 11.5989796,13.1929348 C11.3418367,13.3559783 11.194898,13.6367754 11.194898,13.9356884 L11.194898,15.5842391 C11.194898,16.0824275 11.5989796,16.4809783 12.1040816,16.4809783 C12.6091837,16.4809783 13.0132653,16.0824275 13.0132653,15.5842391 L13.0132653,14.3523551 C13.4540816,13.8994565 13.7112245,13.3016304 13.7112245,12.6585145 L13.7112245,9.24365942 C13.7112245,7.05163043 11.9020408,5.27626812 9.68877551,5.27626812 L8.94489796,5.27626812 C6.72244898,5.27626812 4.92244898,7.06068841 4.92244898,9.24365942 L4.92244898,12.6585145 C4.92244898,13.3016304 5.17959184,13.8994565 5.62040816,14.3523551 L5.62040816,16.7708333 C4.72040816,17.2327899 2.77346939,18.3016304 0.945918367,19.7871377 C0.348979592,20.2762681 0,20.9918478 0,21.7617754 L0,24.0896739 C3.26269624e-16,24.5878623 0.404081633,24.986413 0.909183673,24.986413 L0.909183673,24.986413 Z" id="Shape"></path>
                    <path d="M27.955102,9.28894928 L27.955102,4.87771739 C27.955102,2.1875 25.7418367,0.00452898551 23.0142857,0.00452898551 L22.05,0.00452898551 C19.322449,0.00452898551 17.1091837,2.1875 17.1091837,4.87771739 L17.1091837,9.28894928 C17.1091837,10.0860507 17.4397959,10.8288043 18.0091837,11.3722826 L18.0091837,14.7690217 C16.9346939,15.3125 14.3081633,16.7255435 11.8561224,18.7182971 C11.1397959,19.2980072 10.7357143,20.1494565 10.7357143,21.0643116 L10.7357143,24.0896739 C10.7357143,24.5878623 11.1397959,24.986413 11.644898,24.986413 L33.4102041,24.986413 C33.9153061,24.986413 34.3193878,24.5878623 34.3193878,24.0896739 L34.3193878,21.0643116 C34.3193878,20.1494565 33.9153061,19.2980072 33.1989796,18.7182971 C30.7469388,16.7346014 28.1204082,15.3125 27.0459184,14.7690217 L27.0459184,11.3722826 C27.6244898,10.8378623 27.955102,10.0860507 27.955102,9.28894928 L27.955102,9.28894928 Z M32.0510204,20.1041667 C32.344898,20.3396739 32.5102041,20.6929348 32.5102041,21.0643116 L32.5102041,23.1929348 L12.5632653,23.1929348 L12.5632653,21.0643116 C12.5632653,20.6929348 12.7285714,20.3396739 13.022449,20.1041667 C15.722449,17.9121377 18.6520408,16.4538043 19.2122449,16.1820652 C19.5887755,16.0009058 19.8367347,15.611413 19.8367347,15.2038043 L19.8367347,10.946558 C19.8367347,10.6476449 19.6806122,10.3668478 19.4326531,10.2038043 C19.1204082,9.99547101 18.9367347,9.66032609 18.9367347,9.29800725 L18.9367347,4.88677536 C18.9367347,3.18387681 20.3418367,1.80706522 22.0591837,1.80706522 L23.0234694,1.80706522 C24.75,1.80706522 26.1459184,3.19293478 26.1459184,4.88677536 L26.1459184,9.29800725 C26.1459184,9.66032609 25.9622449,10.004529 25.65,10.2038043 C25.3928571,10.3668478 25.2459184,10.6476449 25.2459184,10.946558 L25.2459184,15.2038043 C25.2459184,15.620471 25.4938776,16.0009058 25.8704082,16.1820652 C26.4214286,16.4538043 29.3510204,17.9211957 32.0510204,20.1041667 L32.0510204,20.1041667 Z" id="Shape"></path>
                </g>
            </g>
        </g>
    </g>
</svg>