<?xml version="1.0" encoding="utf-8"?>
<!-- Generator: Adobe Illustrator 16.0.4, SVG Export Plug-In . SVG Version: 6.00 Build 0)  -->
<!DOCTYPE svg PUBLIC "-//W3C//DTD SVG 1.1//EN" "http://www.w3.org/Graphics/SVG/1.1/DTD/svg11.dtd">
<svg version="1.1" id="Layer_1" xmlns="http://www.w3.org/2000/svg" xmlns:xlink="http://www.w3.org/1999/xlink" x="0px" y="0px"
	 width="37px" height="32px" viewBox="0 0 37 32" enable-background="new 0 0 37 32" xml:space="preserve">
<title>envelope</title>
<desc>Created with Sketch.</desc>
<g id="Page-1">
	<g id="landing-1" transform="translate(-479.000000, -2219.000000)">
		<g id="Group-4" transform="translate(82.000000, 2039.000000)">
			<g id="envelope" transform="translate(397.000000, 180.000000)">
				<path id="Shape" fill="#4A4A4A" d="M36.439,10.478l-4.301-2.917V0.853c0-0.458-0.365-0.829-0.814-0.829H5.66
					c-0.45,0-0.815,0.371-0.815,0.829v6.709l-4.3,2.916C0.204,10.708,0,11.097,0,11.513v19.206c0,0.686,0.547,1.243,1.223,1.243
					h34.539c0.676,0,1.223-0.558,1.223-1.243V11.513C36.984,11.097,36.78,10.708,36.439,10.478z M1.515,13.333l12.452,8.296
					L1.515,29.927V13.333z M3.562,30.45l11.688-7.8l2.77,1.908c0.143,0.099,0.307,0.148,0.471,0.148c0.164,0,0.329-0.05,0.471-0.148
					l2.77-1.908l11.704,7.8H3.562z M16.155,21.211h4.675l-2.338,1.558L16.155,21.211z M23.379,19.513h-9.773l-7.643-5.092V8.133
					h25.057v6.288L23.379,19.513z M30.771,6.435H6.213V4.928h24.559V6.435z M23.081,21.63l12.326-8.213v16.427L23.081,21.63z
					 M35,11.642l-2.279,1.647V9.995L35,11.642z M30.771,1.723v1.507H6.275V1.723H30.771z M4.264,13.288l-2.576-1.553l2.576-1.553
					V13.288L4.264,13.288z"/>
				<path id="Shape_1_" fill="#4A4A4A" d="M19.129,13.543v-1.849c0.219,0.183,0.357,0.457,0.357,0.763
					c0,0.352,0.285,0.637,0.638,0.637s0.638-0.285,0.638-0.637c0-1.029-0.69-1.9-1.633-2.177v-0.21c0-0.352-0.285-0.637-0.637-0.637
					c-0.352,0-0.638,0.285-0.638,0.637v0.21c-0.942,0.276-1.632,1.147-1.632,2.177s0.69,1.9,1.632,2.176v1.849
					c-0.218-0.182-0.357-0.457-0.357-0.762c0-0.352-0.285-0.637-0.637-0.637s-0.637,0.285-0.637,0.637c0,1.029,0.69,1.9,1.632,2.177
					v0.21c0,0.353,0.286,0.638,0.638,0.638c0.352,0,0.637-0.285,0.637-0.638v-0.21c0.942-0.276,1.633-1.147,1.633-2.177
					C20.762,14.69,20.071,13.819,19.129,13.543z M17.497,12.457c0-0.306,0.139-0.58,0.357-0.763v1.525
					C17.636,13.037,17.497,12.763,17.497,12.457z M19.129,16.482v-1.525c0.219,0.183,0.357,0.457,0.357,0.763
					C19.486,16.025,19.348,16.3,19.129,16.482z"/>
			</g>
		</g>
	</g>
</g>
</svg>
