<?xml version="1.0" encoding="utf-8"?>
<!-- Generator: Adobe Illustrator 16.0.4, SVG Export Plug-In . SVG Version: 6.00 Build 0)  -->
<!DOCTYPE svg PUBLIC "-//W3C//DTD SVG 1.1//EN" "http://www.w3.org/Graphics/SVG/1.1/DTD/svg11.dtd">
<svg version="1.1" id="Layer_1" xmlns="http://www.w3.org/2000/svg" xmlns:xlink="http://www.w3.org/1999/xlink" x="0px" y="0px"
	 width="111px" height="97px" viewBox="0 0 111 97" enable-background="new 0 0 111 97" xml:space="preserve">
<title>Layer_1</title>
<desc>Created with Sketch.</desc>
<g id="Page-1">
	<g id="landing-1" transform="translate(-107.000000, -902.000000)">
		<g id="featres" transform="translate(0.000000, 632.000000)">
			<g id="line-icons" transform="translate(108.000000, 264.000000)">
				<g id="group-1" transform="translate(0.000000, 7.000000)">
					<g id="Layer_1_1_">
						<g id="Shape">
							<path fill="#4A4A4A" d="M20.52,16.449c-5.072,0-9.198,4.134-9.198,9.216c0,2.893,0.791,5.833,2.228,8.279l0.671,1.142
								l-1.282,0.333c-5.034,1.304-8.496,3.202-10.197,8.626l-1.636,5.893c-0.219,0.727-0.083,1.52,0.349,2.092
								c0.435,0.646,1.239,1.033,2.082,1.033h9.201l-0.313,1.244c-0.061,0.241-0.149,0.482-0.24,0.724
								c-0.063,0.168-0.129,0.335-0.171,0.503l-2.68,9.626c-0.319,1.031-0.086,2.106,0.631,2.978
								c0.67,0.913,1.601,1.372,2.724,1.372h12.421l-0.603,1.396c-0.283,0.656-0.474,1.32-0.677,2.024l-4.319,15.017
								c-0.346,1.467-0.041,2.98,0.852,4.108c0.939,1.188,2.302,1.868,3.74,1.868h79.077c1.478,0,2.9-0.702,3.712-1.832
								c0.994-1.258,1.296-2.756,0.878-4.255l-4.316-14.904c-0.033-0.098-0.146-0.273-0.258-0.384l-0.17-0.169l-0.075-0.228
								c-2.596-7.834-8.907-13.737-16.884-15.792l-1.251-0.209c-1.484-0.411-3.171,0.12-4.225,1.327
								c-4.793,5.412-10.825,5.859-17.104,5.859c-6.278,0-12.31-0.447-17.098-5.854c-1.061-1.215-2.743-1.744-4.229-1.333
								l-1.259,0.313c-5.958,1.552-11.079,5.28-14.412,10.497l-0.295,0.462H12.687c-0.431,0-0.668-0.151-0.913-0.396l-0.293-0.293
								v-0.261c-0.049-0.134-0.103-0.322-0.103-0.562l0.038-0.271l2.674-9.5c2.485-7.839,7.283-10.321,16.449-12.65
								c0.249-0.062,0.399-0.184,0.467-0.251l0.653-0.648l0.7,0.596c0.606,0.516,1.333,0.986,2.162,1.398l0.107,0.062
								c0.052,0.035,0.154,0.038,0.374,0.038c0.386,0,0.764-0.238,0.984-0.622c0.101-0.205,0.123-0.489,0.035-0.752
								c-0.089-0.266-0.28-0.483-0.539-0.612c-5.036-2.609-8.679-9.942-8.679-17.444c0-6.916,5.661-12.543,12.62-12.543
								c1.189,0,2.383,0.173,3.757,0.545l1.094,0.296l-0.43,1.048c-1.11,2.708-1.673,5.571-1.673,8.508
								c0,16.9,10.137,31.177,22.137,31.177c11.847,0,22.239-14.569,22.239-31.177c0-12.178-9.977-22.086-22.239-22.086
								c-7.551,0-14.503,3.763-18.596,10.066l-0.428,0.659l-0.742-0.26c-1.633-0.573-3.356-0.863-5.119-0.863
								c-4.975,0-9.734,2.64-12.42,6.889l-0.667,1.055l-0.884-0.88c-0.086-0.086-0.176-0.133-0.355-0.222
								c-1.339-0.709-2.685-1.02-4.389-1.02L20.52,16.449z M103.178,91.838H24.101c-1.136,0-1.795-0.657-2.043-0.905l-0.092-0.105
								c-0.472-0.626-0.665-1.541-0.479-2.277l4.328-14.947c2.159-7.4,8.146-13.184,15.624-15.094l1.24-0.309
								c0.081-0.03,0.248-0.056,0.422-0.056c0.561,0,1.211,0.285,1.655,0.727c5.407,6.149,11.942,6.654,18.729,6.654
								s13.323-0.505,18.685-6.605c0.649-0.649,1.359-0.896,2.181-0.729l1.279,0.316c7.494,1.942,13.479,7.725,15.63,15.094
								l1.851,6.333c0.063,0.187,0.102,0.232,0.158,0.289l0.182,0.182l2.333,8.009c0.187,0.9-0.002,1.794-0.471,2.415l-0.091,0.104
								C104.973,91.18,104.314,91.838,103.178,91.838z M64.308,52.203c-10.28,0-19.262-12.294-20.022-27.407l-0.064-1.271
								l1.25,0.239c2.423,0.463,4.989,0.698,7.627,0.698c8.036,0,14.488-2.531,17.701-6.944l0.644-0.883l0.823,0.719
								c2.415,2.11,5.353,3.226,8.494,3.226c0.772,0,1.621-0.101,2.329-0.277l1.049-0.261l0.179,1.066
								c0.116,0.695,0.116,1.254,0.116,1.902C84.434,38.562,75.029,52.203,64.308,52.203z M14.057,50.978H3.037l1.798-6.379
								c1.356-4.605,4.201-6.036,9.677-7.341c0.068-0.026,0.294-0.101,0.355-0.15l0.631-0.627l0.691,0.559
								c0.453,0.36,0.815,0.636,1.364,0.909l0.108,0.062c0.052,0.035,0.153,0.038,0.373,0.038c0.386,0,0.763-0.239,0.984-0.623
								c0.257-0.515-0.011-1.147-0.439-1.384c-3.024-1.617-5.144-5.887-5.144-10.375c0-4.055,3.194-7.231,7.272-7.231
								c1.312,0,2.361,0.247,3.388,0.797l0.11,0.038c0.188,0.066,0.242,0.083,0.307,0.083h1.39l-0.442,1.318
								c-0.511,1.524-0.771,3.067-0.771,4.585c0,5.434,1.805,11.01,4.829,14.915l0.939,1.213l-1.489,0.37
								c-6.611,1.642-11.362,3.68-14.618,8.762L14.057,50.978z M53.138,22.427c-2.528,0-5.166-0.264-7.839-0.786l-0.934-0.182
								l0.136-0.942c0.322-2.236,0.974-4.395,1.938-6.417l0.075-0.156l0.123-0.122c0.079-0.079,0.091-0.09,0.122-0.15l0.072-0.143
								c0.041-0.113,0.099-0.246,0.195-0.378c3.488-6.195,10.102-10.04,17.284-10.04c8.764,0,16.461,5.615,19.153,13.973
								l0.344,1.069l-1.101,0.219c-0.669,0.133-1.355,0.2-2.041,0.2c-3.381,0-6.605-1.632-8.625-4.367
								c-0.352-0.448-0.994-0.574-1.464-0.211c-0.276,0.207-0.324,0.331-0.359,0.471l-0.068,0.273l-0.136,0.134
								c-0.031,0.059-0.072,0.13-0.13,0.208C67.53,19.683,61.284,22.427,53.138,22.427z"/>
						</g>
					</g>
				</g>
			</g>
		</g>
	</g>
</g>
</svg>
