<?xml version="1.0" encoding="UTF-8" standalone="no"?>
<svg width="45px" height="44px" viewBox="0 0 45 44" version="1.1" xmlns="http://www.w3.org/2000/svg" xmlns:xlink="http://www.w3.org/1999/xlink">
    <!-- Generator: Sketch 41 (35326) - http://www.bohemiancoding.com/sketch -->
    <title>recycle</title>
    <desc>Created with Sketch.</desc>
    <defs></defs>
    <g id="Page-1" stroke="none" stroke-width="1" fill="none" fill-rule="evenodd">
        <g id="landing-1" transform="translate(-82.000000, -2221.000000)" fill="#4A4A4A">
            <g id="Group-4" transform="translate(82.000000, 2039.000000)">
                <g id="recycle" transform="translate(0.000000, 182.000000)">
                    <path d="M18.4895614,2.63573913 C18.3007018,2.18704348 17.7808772,1.97443478 17.3281579,2.16165217 C11.5532456,4.54695652 8.82298246,8.41904348 7.54973684,11.2473913 C6.70885965,13.1147826 6.37552632,14.7729565 6.24350877,15.8118261 L1.11807018,14.4503478 C0.802368421,14.366 0.464298246,14.4617391 0.240263158,14.6986087 C0.0162280702,14.9354783 -0.0581578947,15.2753043 0.0468421053,15.5829565 L4.15166667,27.6113913 C4.24684211,27.8902609 4.47631579,28.1034783 4.76315789,28.1797391 C4.83903509,28.1998261 4.91622807,28.2097391 4.99298246,28.2097391 C5.20614035,28.2097391 5.41517544,28.1335652 5.57929825,27.9906087 L15.2011404,19.6082609 C15.4472807,19.393913 15.5541228,19.0626957 15.4798246,18.7466087 C15.4052632,18.4304348 15.1610526,18.1805217 14.8446491,18.0964348 L10.8121053,17.0253043 C10.3380702,16.8995652 9.85131579,17.1781739 9.72447368,17.647913 C9.59736842,18.1175652 9.87868421,18.6003478 10.3524561,18.7262609 L12.7819298,19.3715652 L5.40736842,25.7961739 L2.26140351,16.5771304 L6.81552632,17.7867826 C7.08245614,17.8578261 7.36807018,17.8013043 7.5872807,17.6338261 C7.80649123,17.4664348 7.93447368,17.2074783 7.93359649,16.9332174 C7.93333333,16.8435652 8.01754386,7.91513043 18.0112281,3.78721739 C18.4642105,3.60017391 18.6782456,3.08469565 18.4895614,2.63573913 Z" id="Shape"></path>
                    <path d="M41.6824561,11.1472174 C40.4714035,9.49165217 39.1894737,8.37643478 38.3478947,7.74373913 L42.1,4.02434783 C42.3315789,3.79478261 42.4170175,3.4573913 42.3220175,3.1466087 C42.2272807,2.83591304 41.9674561,2.60217391 41.6461404,2.53834783 L29.0852632,0.048 C28.7944737,-0.00956521739 28.492807,0.0806956522 28.2831579,0.288782609 C28.0730702,0.496956522 27.9820175,0.795478261 28.0402632,1.08408696 L30.5526316,13.5356522 C30.6168421,13.854 30.8525439,14.1114783 31.1660526,14.2056522 C31.4795614,14.2993043 31.8198246,14.2152174 32.0514035,13.9855652 L35.0035088,11.0589565 C35.3504386,10.7151304 35.3504386,10.1576522 35.0035088,9.81382609 C34.6565789,9.47008696 34.0941228,9.47008696 33.7475439,9.81382609 L31.9687719,11.5771304 L30.0432456,2.03382609 L39.6705263,3.94252174 L36.3365789,7.24721739 C36.1414035,7.44069565 36.0490351,7.71347826 36.0848246,7.98469565 C36.120614,8.25582609 36.2825439,8.49573913 36.5213158,8.63278261 C36.8418421,8.81678261 44.3535965,13.2602609 42.9691228,23.8586087 C42.9060526,24.3408696 43.2492982,24.7823478 43.7358772,24.8448696 C43.7744737,24.8498261 43.8130702,24.8522609 43.8510526,24.8522609 C44.2907895,24.8522609 44.6728947,24.5286957 44.7307895,24.0847826 C45.534386,17.9344348 43.5166667,13.6546087 41.6824561,11.1472174 Z" id="Shape"></path>
                    <path d="M40.4435965,33.3225217 C40.3668421,33.038087 40.1517544,32.8106957 39.8705263,32.7163478 L27.7365789,28.6472174 C27.425614,28.5429565 27.0834211,28.6170435 26.8442982,28.8389565 C26.6053509,29.0610435 26.5092982,29.3954783 26.5940351,29.7091304 L27.6745614,33.7067826 C27.8014035,34.1764348 28.2884211,34.4550435 28.762193,34.3293913 C29.2359649,34.2035652 29.517193,33.7207826 29.3901754,33.2510435 L28.7392105,30.8424348 L38.0390351,33.9611304 L31.5583333,41.2715652 L30.3379825,36.7570435 C30.2664035,36.492087 30.0745614,36.2753913 29.8186842,36.1708696 C29.5626316,36.0665217 29.2724561,36.086 29.0335088,36.224 C28.955,36.2690435 21.1129825,40.6611304 12.5098246,34.1453043 C12.1197368,33.8501739 11.5624561,33.9242609 11.2647368,34.3105217 C10.9670175,34.6968696 11.0415789,35.2494783 11.4312281,35.5446957 C16.4025439,39.3097391 21.1502632,39.7177391 24.2579825,39.3966087 C26.3099123,39.1846957 27.9251754,38.6416522 28.8985965,38.2356522 L30.2720175,43.3165217 C30.3565789,43.6301739 30.6087719,43.872087 30.9277193,43.946 C30.9947368,43.9615652 31.0626316,43.9691304 31.1298246,43.9691304 C31.3820175,43.9691304 31.6262281,43.8625217 31.7970175,43.669913 L40.2528947,34.1317391 C40.4490351,33.9104348 40.5205263,33.6067826 40.4435965,33.3225217 Z" id="Shape"></path>
                </g>
            </g>
        </g>
    </g>
</svg>