<?xml version="1.0" encoding="UTF-8" standalone="no"?>
<svg width="44px" height="44px" viewBox="0 0 44 44" version="1.1" xmlns="http://www.w3.org/2000/svg" xmlns:xlink="http://www.w3.org/1999/xlink">
    <!-- Generator: Sketch 41 (35326) - http://www.bohemiancoding.com/sketch -->
    <title>pie-chart</title>
    <desc>Created with Sketch.</desc>
    <defs></defs>
    <g id="Page-1" stroke="none" stroke-width="1" fill="none" fill-rule="evenodd">
        <g id="landing-1" transform="translate(-245.000000, -2039.000000)" fill="#4A4A4A">
            <g id="Group-4" transform="translate(82.000000, 2039.000000)">
                <g id="pie-chart" transform="translate(163.000000, 0.000000)">
                    <g id="Group">
                        <path d="M43.2217049,20.1707541 C42.4910164,9.44845902 33.8540328,0.810754098 23.1310164,0.0793442623 L22.3606557,0.0274098361 L22.3606557,20.9411148 L43.2743607,20.9411148 L43.2217049,20.1707541 Z M23.8032787,19.4984918 L23.8032787,1.58616393 C25.5885246,1.77731148 27.3045246,2.20577049 28.9224262,2.83547541 C28.919541,2.86072131 28.908,2.88236066 28.908,2.90832787 C28.908,3.3064918 29.2311475,3.62963934 29.6293115,3.62963934 C29.8464262,3.62963934 30.0346885,3.52865574 30.1674098,3.37718033 C33.7285246,5.04845902 36.7234098,7.73029508 38.7885246,11.0497705 C38.6586885,10.9220984 38.4812459,10.8427541 38.2850492,10.8427541 C37.8868852,10.8427541 37.5637377,11.1659016 37.5637377,11.5640656 C37.5637377,11.9622295 37.8868852,12.285377 38.2850492,12.285377 C38.6832131,12.285377 39.0063607,11.9622295 39.0063607,11.5640656 C39.0063607,11.4710164 38.9854426,11.3837377 38.9537049,11.3022295 C39.3230164,11.9153443 39.6526557,12.5537049 39.9563279,13.2064918 C39.8171148,13.3377705 39.7276721,13.5217049 39.7276721,13.728 C39.7276721,14.1261639 40.0508197,14.4493115 40.4489836,14.4493115 C40.4641311,14.4493115 40.4771148,14.441377 40.4929836,14.4406557 C41.1097049,16.0405246 41.5273443,17.7363279 41.7163279,19.4984918 L23.8032787,19.4984918 Z" id="Shape"></path>
                        <path d="M22.5900328,22.3837377 L37.0862295,36.8799344 L37.5954754,36.3274098 C40.9264918,32.715082 42.944,28.0366557 43.2765246,23.1540984 L43.3291803,22.3837377 L22.5900328,22.3837377 L22.5900328,22.3837377 Z M37.0342951,34.7881311 L26.0725246,23.8263607 L41.7697049,23.8263607 C41.336918,27.8541639 39.6771803,31.6958689 37.0342951,34.7881311 Z" id="Shape"></path>
                        <path d="M25.3007213,3.62963934 C25.6990906,3.62963934 26.0220328,3.3066972 26.0220328,2.90832787 C26.0220328,2.50995854 25.6990906,2.18701639 25.3007213,2.18701639 C24.902352,2.18701639 24.5794098,2.50995854 24.5794098,2.90832787 C24.5794098,3.3066972 24.902352,3.62963934 25.3007213,3.62963934 Z M25.3007213,7.9575082 C25.6990906,7.9575082 26.0220328,7.63456605 26.0220328,7.23619672 C26.0220328,6.83782739 25.6990906,6.51488525 25.3007213,6.51488525 C24.902352,6.51488525 24.5794098,6.83782739 24.5794098,7.23619672 C24.5794098,7.63456605 24.902352,7.9575082 25.3007213,7.9575082 Z M27.4646557,5.79357377 C27.8630251,5.79357377 28.1859672,5.47063162 28.1859672,5.0722623 C28.1859672,4.67389297 27.8630251,4.35095082 27.4646557,4.35095082 C27.0662864,4.35095082 26.7433443,4.67389297 26.7433443,5.0722623 C26.7433443,5.47063162 27.0662864,5.79357377 27.4646557,5.79357377 Z M31.7925246,5.79357377 C32.1908939,5.79357377 32.5138361,5.47063162 32.5138361,5.0722623 C32.5138361,4.67389297 32.1908939,4.35095082 31.7925246,4.35095082 C31.3941553,4.35095082 31.0712131,4.67389297 31.0712131,5.0722623 C31.0712131,5.47063162 31.3941553,5.79357377 31.7925246,5.79357377 Z M29.6285902,7.9575082 C30.0269595,7.9575082 30.3499016,7.63456605 30.3499016,7.23619672 C30.3499016,6.83782739 30.0269595,6.51488525 29.6285902,6.51488525 C29.2302208,6.51488525 28.9072787,6.83782739 28.9072787,7.23619672 C28.9072787,7.63456605 29.2302208,7.9575082 29.6285902,7.9575082 Z M33.956459,7.9575082 C34.3548283,7.9575082 34.6777705,7.63456605 34.6777705,7.23619672 C34.6777705,6.83782739 34.3548283,6.51488525 33.956459,6.51488525 C33.5580897,6.51488525 33.2351475,6.83782739 33.2351475,7.23619672 C33.2351475,7.63456605 33.5580897,7.9575082 33.956459,7.9575082 Z M36.1203934,10.1214426 C36.5187628,10.1214426 36.8417049,9.79850048 36.8417049,9.40013115 C36.8417049,9.00176182 36.5187628,8.67881967 36.1203934,8.67881967 C35.7220241,8.67881967 35.399082,9.00176182 35.399082,9.40013115 C35.399082,9.79850048 35.7220241,10.1214426 36.1203934,10.1214426 Z M27.4646557,10.1214426 C27.8630251,10.1214426 28.1859672,9.79850048 28.1859672,9.40013115 C28.1859672,9.00176182 27.8630251,8.67881967 27.4646557,8.67881967 C27.0662864,8.67881967 26.7433443,9.00176182 26.7433443,9.40013115 C26.7433443,9.79850048 27.0662864,10.1214426 27.4646557,10.1214426 Z M31.7925246,10.1214426 C32.1908939,10.1214426 32.5138361,9.79850048 32.5138361,9.40013115 C32.5138361,9.00176182 32.1908939,8.67881967 31.7925246,8.67881967 C31.3941553,8.67881967 31.0712131,9.00176182 31.0712131,9.40013115 C31.0712131,9.79850048 31.3941553,10.1214426 31.7925246,10.1214426 Z M36.1203934,14.4493115 C36.5187628,14.4493115 36.8417049,14.1263693 36.8417049,13.728 C36.8417049,13.3296307 36.5187628,13.0066885 36.1203934,13.0066885 C35.7220241,13.0066885 35.399082,13.3296307 35.399082,13.728 C35.399082,14.1263693 35.7220241,14.4493115 36.1203934,14.4493115 Z M38.2843279,16.6132459 C38.6826972,16.6132459 39.0056393,16.2903038 39.0056393,15.8919344 C39.0056393,15.4935651 38.6826972,15.170623 38.2843279,15.170623 C37.8859585,15.170623 37.5630164,15.4935651 37.5630164,15.8919344 C37.5630164,16.2903038 37.8859585,16.6132459 38.2843279,16.6132459 Z M25.3007213,12.285377 C25.6990906,12.285377 26.0220328,11.9624349 26.0220328,11.5640656 C26.0220328,11.1656962 25.6990906,10.8427541 25.3007213,10.8427541 C24.902352,10.8427541 24.5794098,11.1656962 24.5794098,11.5640656 C24.5794098,11.9624349 24.902352,12.285377 25.3007213,12.285377 Z M25.3007213,16.6132459 C25.6990906,16.6132459 26.0220328,16.2903038 26.0220328,15.8919344 C26.0220328,15.4935651 25.6990906,15.170623 25.3007213,15.170623 C24.902352,15.170623 24.5794098,15.4935651 24.5794098,15.8919344 C24.5794098,16.2903038 24.902352,16.6132459 25.3007213,16.6132459 Z M27.4646557,14.4493115 C27.8630251,14.4493115 28.1859672,14.1263693 28.1859672,13.728 C28.1859672,13.3296307 27.8630251,13.0066885 27.4646557,13.0066885 C27.0662864,13.0066885 26.7433443,13.3296307 26.7433443,13.728 C26.7433443,14.1263693 27.0662864,14.4493115 27.4646557,14.4493115 Z M31.7925246,14.4493115 C32.1908939,14.4493115 32.5138361,14.1263693 32.5138361,13.728 C32.5138361,13.3296307 32.1908939,13.0066885 31.7925246,13.0066885 C31.3941553,13.0066885 31.0712131,13.3296307 31.0712131,13.728 C31.0712131,14.1263693 31.3941553,14.4493115 31.7925246,14.4493115 Z M29.6285902,12.285377 C30.0269595,12.285377 30.3499016,11.9624349 30.3499016,11.5640656 C30.3499016,11.1656962 30.0269595,10.8427541 29.6285902,10.8427541 C29.2302208,10.8427541 28.9072787,11.1656962 28.9072787,11.5640656 C28.9072787,11.9624349 29.2302208,12.285377 29.6285902,12.285377 Z M33.956459,12.285377 C34.3548283,12.285377 34.6777705,11.9624349 34.6777705,11.5640656 C34.6777705,11.1656962 34.3548283,10.8427541 33.956459,10.8427541 C33.5580897,10.8427541 33.2351475,11.1656962 33.2351475,11.5640656 C33.2351475,11.9624349 33.5580897,12.285377 33.956459,12.285377 Z M29.6285902,16.6132459 C30.0269595,16.6132459 30.3499016,16.2903038 30.3499016,15.8919344 C30.3499016,15.4935651 30.0269595,15.170623 29.6285902,15.170623 C29.2302208,15.170623 28.9072787,15.4935651 28.9072787,15.8919344 C28.9072787,16.2903038 29.2302208,16.6132459 29.6285902,16.6132459 Z M33.956459,16.6132459 C34.3548283,16.6132459 34.6777705,16.2903038 34.6777705,15.8919344 C34.6777705,15.4935651 34.3548283,15.170623 33.956459,15.170623 C33.5580897,15.170623 33.2351475,15.4935651 33.2351475,15.8919344 C33.2351475,16.2903038 33.5580897,16.6132459 33.956459,16.6132459 Z M40.4482623,18.7771803 C40.8466316,18.7771803 41.1695738,18.4542382 41.1695738,18.0558689 C41.1695738,17.6574995 40.8466316,17.3345574 40.4482623,17.3345574 C40.049893,17.3345574 39.7269508,17.6574995 39.7269508,18.0558689 C39.7269508,18.4542382 40.049893,18.7771803 40.4482623,18.7771803 Z M36.1203934,18.7771803 C36.5187628,18.7771803 36.8417049,18.4542382 36.8417049,18.0558689 C36.8417049,17.6574995 36.5187628,17.3345574 36.1203934,17.3345574 C35.7220241,17.3345574 35.399082,17.6574995 35.399082,18.0558689 C35.399082,18.4542382 35.7220241,18.7771803 36.1203934,18.7771803 Z M27.4646557,18.7771803 C27.8630251,18.7771803 28.1859672,18.4542382 28.1859672,18.0558689 C28.1859672,17.6574995 27.8630251,17.3345574 27.4646557,17.3345574 C27.0662864,17.3345574 26.7433443,17.6574995 26.7433443,18.0558689 C26.7433443,18.4542382 27.0662864,18.7771803 27.4646557,18.7771803 Z M31.7925246,18.7771803 C32.1908939,18.7771803 32.5138361,18.4542382 32.5138361,18.0558689 C32.5138361,17.6574995 32.1908939,17.3345574 31.7925246,17.3345574 C31.3941553,17.3345574 31.0712131,17.6574995 31.0712131,18.0558689 C31.0712131,18.4542382 31.3941553,18.7771803 31.7925246,18.7771803 Z" id="Combined-Shape"></path>
                        <path d="M20.9180328,0.0274098361 L20.1476721,0.0793442623 C8.84977049,0.85042623 0,10.3299016 0,21.6624262 C0,26.884 1.89055738,31.9288525 5.32327869,35.8686557 L5.83108197,36.4514754 L20.9180328,21.3638033 L20.9180328,0.0274098361 Z M19.4754098,20.7665574 L5.91403279,34.3279344 C3.02518033,30.744459 1.44262295,26.277377 1.44262295,21.6624262 C1.44262295,11.3455082 9.30203279,2.67245902 19.4754098,1.58616393 L19.4754098,20.7665574 Z" id="Shape"></path>
                        <path d="M6.85101639,37.4706885 L7.43383607,37.9784918 C11.372918,41.4112131 16.4184918,43.3017705 21.6393443,43.3017705 C26.6358689,43.3017705 31.5119344,41.5525902 35.3709508,38.3780984 L35.9847869,37.8731803 L21.2166557,23.1050492 L6.85101639,37.4706885 Z M21.2166557,25.144918 L22.0108197,25.939082 L9.88701639,38.0621639 C9.5797377,37.8414426 9.26957377,37.6264918 8.97383607,37.388459 L21.2166557,25.144918 Z M15.2903607,40.820459 C14.7890492,40.6538361 14.2956721,40.4662951 13.8095082,40.2607213 L25.0713443,28.9988852 L26.0912787,30.0188197 L15.2903607,40.820459 Z M27.1112131,31.0394754 L28.1311475,32.0594098 L18.5780984,41.6131803 C18.0046557,41.5251803 17.4362623,41.413377 16.8743607,41.2763279 L27.1112131,31.0394754 Z M12.4202623,39.6100984 C11.9759344,39.3821639 11.5417049,39.1361967 11.1146885,38.875082 L23.0307541,26.9590164 L24.0514098,27.9796721 L12.4202623,39.6100984 Z M20.4239344,41.8072131 L29.151082,33.0793443 L30.1710164,34.0992787 L22.4450492,41.8259672 C22.1767213,41.8367869 21.9091148,41.8591475 21.6393443,41.8591475 C21.2325246,41.8591475 20.8285902,41.8317377 20.4239344,41.8072131 Z M31.1909508,35.1199344 L32.2116066,36.1405902 L27.333377,41.0188197 C26.4678033,41.2741639 25.5885246,41.4797377 24.6940984,41.6175082 L31.1909508,35.1199344 Z M30.6990164,39.6930492 L33.2322623,37.1598033 L33.8295082,37.7570492 C32.8456393,38.5036066 31.7932459,39.1426885 30.6990164,39.6930492 Z" id="Shape"></path>
                    </g>
                </g>
            </g>
        </g>
    </g>
</svg>