<?xml version="1.0" encoding="utf-8"?>
<!-- Generator: Adobe Illustrator 16.0.4, SVG Export Plug-In . SVG Version: 6.00 Build 0)  -->
<!DOCTYPE svg PUBLIC "-//W3C//DTD SVG 1.1//EN" "http://www.w3.org/Graphics/SVG/1.1/DTD/svg11.dtd">
<svg version="1.1" id="Layer_1" xmlns="http://www.w3.org/2000/svg" xmlns:xlink="http://www.w3.org/1999/xlink" x="0px" y="0px"
	 width="102px" height="103px" viewBox="0 0 102 103" enable-background="new 0 0 102 103" xml:space="preserve">
<title>Group</title>
<desc>Created with Sketch.</desc>
<g>
	<path fill="#4A4A4A" d="M59.414,51.47l-3.977-0.72l3.872-1.224c2.988-0.878,5.378-2.469,7.104-4.728
		c1.725-2.253,2.599-4.948,2.599-8.009c0-5.373-1.697-9.268-5.188-11.905c-2.492-1.882-5.701-3.104-9.547-3.687v-5.946
		c0-1.25-0.634-1.585-1.414-1.585s-1.414,0.335-1.414,1.585v5.635c-0.853-0.056-1.725-0.091-2.631-0.091l-3.41-0.005v-5.539
		c0-1.25-0.634-1.585-1.414-1.585c-0.781,0-1.414,0.335-1.414,1.585v5.535l-9.742-0.014c-0.694,0-1.259,0.565-1.259,1.261v61.04
		c0,0.658,0.506,1.199,1.148,1.257l0.142-0.003h9.711v3.268c0,1.248,0.633,1.571,1.414,1.571c0.78,0,1.414-0.323,1.414-1.571v-3.268
		h6.042v3.268c0,1.248,0.634,1.571,1.414,1.571s1.414-0.323,1.414-1.571v-3.375c4.308-0.435,8.435-2.264,12.293-5.465
		c3.517-2.916,5.226-6.995,5.226-12.472c0-3.624-1.156-6.87-3.438-9.647C66.083,53.868,63.074,52.13,59.414,51.47z M61.253,26.644
		c2.96,2.236,4.46,5.587,4.46,9.961c0,4.273-1.41,7.573-4.191,9.809c-1.544,1.24-3.931,2.642-7.245,3.325V23.644
		C57.002,24.209,59.365,25.218,61.253,26.644z M48.817,23.112c0.906,0,1.777,0.053,2.631,0.129v26.861
		c-0.443,0.027-0.88,0.061-1.35,0.061h-4.692V23.112H48.817z M34.916,23.112h7.663v27.051h-8.661V24.112l-0.016-1.014L34.916,23.112
		z M33.916,81.822V52.597h8.663v29.226H33.916z M45.407,81.822V52.597h6.042v29.226H45.407z M64.083,76.914
		c-3.204,2.758-6.432,4.315-9.807,4.76V52.629c4.744,0.156,7.946,1.267,10.24,3.569c2.64,2.647,3.979,6.067,3.979,10.167
		C68.493,70.846,67.009,74.395,64.083,76.914z"/>
	<path fill="#4A4A4A" d="M50.924,2.688C24.05,2.688,2.188,24.55,2.188,51.424c0,26.873,21.863,48.736,48.736,48.736
		c26.873,0,48.736-21.863,48.736-48.736C99.66,24.55,77.797,2.688,50.924,2.688z M50.924,97.639
		c-25.483,0-46.215-20.731-46.215-46.215c0-25.483,20.732-46.215,46.215-46.215c25.483,0,46.215,20.732,46.215,46.215
		C97.139,76.907,76.407,97.639,50.924,97.639z"/>
</g>
</svg>
