<?xml version="1.0" encoding="utf-8"?>
<!-- Generator: Adobe Illustrator 16.0.4, SVG Export Plug-In . SVG Version: 6.00 Build 0)  -->
<!DOCTYPE svg PUBLIC "-//W3C//DTD SVG 1.1//EN" "http://www.w3.org/Graphics/SVG/1.1/DTD/svg11.dtd">
<svg version="1.1" id="Layer_1" xmlns="http://www.w3.org/2000/svg" xmlns:xlink="http://www.w3.org/1999/xlink" x="0px" y="0px"
	 width="103px" height="107px" viewBox="0 0 103 107" enable-background="new 0 0 103 107" xml:space="preserve">
<title>list-3</title>
<desc>Created with Sketch.</desc>
<g id="Page-1">
	<g id="landing-1" transform="translate(-1083.000000, -895.000000)">
		<g id="featres" transform="translate(0.000000, 632.000000)">
			<g id="line-icons" transform="translate(108.000000, 264.000000)">
				<g id="list-3" transform="translate(975.000000, 0.000000)">
					<g id="Shape">
						<path fill="#4A4A4A" d="M87.97,92.118l11.353,11.875c0.495,0.519,1.377,0.536,1.893,0.043
							c0.259-0.248,0.406-0.582,0.415-0.939c0.008-0.358-0.124-0.697-0.371-0.956L89.951,90.312l0.313-0.346
							c3.263-3.583,5.06-8.202,5.06-13.006c0-10.681-8.688-19.37-19.369-19.37c-10.682,0-19.371,8.689-19.371,19.37
							c0,10.68,8.689,19.368,19.371,19.368c4.223,0,8.254-1.362,11.659-3.94L87.97,92.118z M75.955,93.646
							c-9.202,0-16.689-7.486-16.689-16.688S66.753,60.27,75.955,60.27s16.688,7.486,16.688,16.688S85.157,93.646,75.955,93.646z"/>
					</g>
					<g id="Combined-Shape">
						<path fill="#4A4A4A" d="M23.28,0.5c-12.081,0-21.91,9.829-21.91,21.91v54.567c0,12.081,9.829,21.909,21.91,21.909h25.443
							c0.739,0,1.34-0.602,1.34-1.341s-0.601-1.34-1.34-1.34H23.28c-10.603,0-19.229-8.626-19.229-19.229V22.41
							c0-10.603,8.626-19.229,19.229-19.229h54.567c10.603,0,19.229,8.626,19.229,19.229v38.327c0,0.739,0.602,1.34,1.341,1.34
							s1.34-0.601,1.34-1.34V22.41c0-12.081-9.828-21.91-21.909-21.91H23.28z M16.517,75.17c-0.426,0-0.817,0.195-1.072,0.536
							c-0.216,0.286-0.306,0.638-0.256,0.992s0.236,0.667,0.523,0.882l8.414,6.312c0.545,0.412,1.378,0.319,1.82-0.2l12.622-14.723
							c0.234-0.272,0.347-0.618,0.32-0.976c-0.028-0.355-0.192-0.68-0.464-0.912c-0.541-0.463-1.429-0.394-1.89,0.145L24.728,80.993
							l-7.409-5.555C17.085,75.263,16.808,75.17,16.517,75.17z M16.516,47.563c-0.426,0-0.817,0.195-1.072,0.536
							c-0.216,0.286-0.306,0.638-0.256,0.991c0.05,0.355,0.236,0.668,0.523,0.883l8.413,6.312c0.545,0.412,1.378,0.318,1.82-0.201
							L38.567,41.36c0.233-0.271,0.346-0.615,0.319-0.969c-0.027-0.357-0.192-0.683-0.465-0.917
							c-0.54-0.463-1.428-0.394-1.888,0.144l-11.805,13.77l-7.409-5.556C17.085,47.656,16.808,47.563,16.516,47.563z M50.563,48.353
							c-0.739,0-1.34,0.601-1.34,1.34s0.601,1.34,1.34,1.34h33.128c0.739,0,1.341-0.601,1.341-1.34s-0.602-1.34-1.341-1.34H50.563z
							 M16.516,21.796c-0.426,0-0.817,0.195-1.072,0.536c-0.215,0.286-0.306,0.638-0.255,0.992c0.05,0.354,0.236,0.668,0.523,0.883
							l8.413,6.312c0.545,0.412,1.377,0.317,1.82-0.201l12.622-14.725c0.233-0.271,0.346-0.615,0.319-0.97
							c-0.027-0.357-0.192-0.683-0.465-0.917c-0.54-0.465-1.428-0.395-1.888,0.143L24.728,27.62l-7.409-5.556
							C17.085,21.889,16.808,21.796,16.516,21.796z M50.563,22.586c-0.739,0-1.34,0.601-1.34,1.34s0.601,1.34,1.34,1.34h33.128
							c0.739,0,1.341-0.601,1.341-1.34s-0.602-1.34-1.341-1.34H50.563z"/>
					</g>
				</g>
			</g>
		</g>
	</g>
</g>
</svg>
