<?xml version="1.0" encoding="utf-8"?>
<!-- Generator: Adobe Illustrator 16.0.4, SVG Export Plug-In . SVG Version: 6.00 Build 0)  -->
<!DOCTYPE svg PUBLIC "-//W3C//DTD SVG 1.1//EN" "http://www.w3.org/Graphics/SVG/1.1/DTD/svg11.dtd">
<svg version="1.1" id="Layer_1" xmlns="http://www.w3.org/2000/svg" xmlns:xlink="http://www.w3.org/1999/xlink" x="0px" y="0px"
	 width="107px" height="107px" viewBox="0 0 107 107" enable-background="new 0 0 107 107" xml:space="preserve">
<title>list-4</title>
<desc>Created with Sketch.</desc>
<g id="Page-1">
	<g id="landing-1" transform="translate(-847.000000, -895.000000)">
		<g id="featres" transform="translate(0.000000, 632.000000)">
			<g id="line-icons" transform="translate(108.000000, 264.000000)">
				<g id="list-4" transform="translate(740.000000, 0.000000)">
					<g id="Shape">
						<path fill="#4A4A4A" d="M71.843,79.843c-0.404,0-0.783,0.179-1.038,0.49c-0.229,0.278-0.335,0.628-0.299,0.985
							c0.035,0.355,0.207,0.676,0.484,0.901l8.817,7.239c0.281,0.232,0.648,0.349,1.022,0.292c0.382-0.053,0.716-0.258,0.931-0.564
							L93.207,72.74c0.422-0.608,0.271-1.446-0.335-1.869c-0.593-0.412-1.46-0.251-1.869,0.336L80.387,86.461l-7.694-6.312
							C72.45,79.948,72.156,79.843,71.843,79.843z"/>
					</g>
					<g id="Shape_1_">
						<path fill="#4A4A4A" d="M22.43,0.5C10.337,0.5,0.5,10.337,0.5,22.43v54.615c0,12.092,9.837,21.929,21.93,21.929h43.523
							l0.139,0.115c4.2,3.489,9.513,5.411,14.961,5.411c12.929,0,23.447-10.519,23.447-23.447c0-5.448-1.922-10.761-5.411-14.961
							l-0.115-0.139V22.43c0-12.092-9.837-21.93-21.929-21.93H22.43z M81.053,101.816c-5.104,0-10.024-1.897-13.854-5.342
							c-0.462-0.414-0.902-0.846-1.309-1.282l-0.211-0.231c-0.445-0.495-0.823-0.953-1.183-1.427l-0.244-0.325
							c-0.351-0.483-0.682-0.984-0.983-1.489c-0.089-0.143-0.141-0.225-0.189-0.312c-0.296-0.512-0.574-1.048-0.848-1.636
							c-0.072-0.146-0.103-0.208-0.131-0.272c-0.249-0.554-0.484-1.155-0.695-1.779l-0.08-0.219
							c-0.191-0.581-0.359-1.195-0.516-1.879c-0.033-0.121-0.047-0.171-0.058-0.223c-0.123-0.563-0.224-1.185-0.308-1.896
							c-0.023-0.148-0.032-0.208-0.039-0.27c-0.077-0.719-0.117-1.454-0.117-2.182c0-11.449,9.314-20.764,20.764-20.764
							c0.73,0,1.469,0.04,2.193,0.119c0.056,0.006,0.112,0.016,0.168,0.026c0.796,0.099,1.421,0.201,1.992,0.325
							c0.044,0.009,0.091,0.021,0.137,0.035c0.764,0.176,1.381,0.346,1.963,0.537l0.146,0.052c0.685,0.234,1.291,0.472,1.863,0.729
							l0.243,0.118c0.583,0.271,1.141,0.56,1.661,0.86l0.216,0.13c0.623,0.378,1.115,0.703,1.582,1.042l0.246,0.184
							c0.531,0.402,0.996,0.784,1.441,1.183l0.287,0.264c0.438,0.407,0.875,0.854,1.295,1.322c3.437,3.824,5.329,8.738,5.329,13.838
							C101.816,92.502,92.502,101.816,81.053,101.816z M63.221,96.289H22.43c-10.612,0-19.246-8.633-19.246-19.244V22.43
							c0-10.612,8.633-19.246,19.246-19.246h54.615c10.611,0,19.244,8.633,19.244,19.246v40.805l-0.81-0.638
							c-0.068-0.054-0.141-0.104-0.212-0.153l-0.204-0.145c-0.38-0.286-0.758-0.569-1.154-0.831l-0.134-0.082
							c-0.89-0.577-1.87-1.116-2.908-1.596l-0.41-0.199c-0.356-0.156-0.724-0.294-1.094-0.434l-0.252-0.095
							c-0.212-0.08-0.426-0.16-0.642-0.233c-0.37-0.124-0.748-0.232-1.129-0.34c-0.321-0.09-0.646-0.175-0.973-0.25
							c-0.345-0.079-0.688-0.157-1.038-0.223c-0.414-0.077-0.831-0.137-1.252-0.19L83.8,57.788c-0.188-0.026-0.378-0.053-0.569-0.07
							c-0.77-0.076-1.48-0.112-2.178-0.112c-10.896,0-20.269,7.417-22.793,18.036l-0.091,0.385h-8.432
							c-0.74,0-1.342,0.602-1.342,1.342s0.602,1.343,1.342,1.343h8.003l-0.043,0.539c-0.05,0.643-0.092,1.222-0.092,1.803
							c0,0.667,0.036,1.38,0.11,2.179c0.021,0.217,0.05,0.431,0.08,0.645l0.027,0.202c0.055,0.42,0.114,0.835,0.191,1.245
							c0.065,0.354,0.143,0.701,0.224,1.047c0.076,0.324,0.159,0.644,0.248,0.964c0.107,0.383,0.217,0.766,0.345,1.142
							c0.064,0.194,0.136,0.383,0.208,0.571l0.104,0.278c0.144,0.384,0.287,0.766,0.449,1.139l0.17,0.353
							c0.5,1.085,1.057,2.099,1.655,3.011c0.299,0.458,0.572,0.824,0.846,1.191l0.185,0.257c0.049,0.07,0.098,0.141,0.149,0.208
							L63.221,96.289z"/>
					</g>
					<g id="Combined-Shape">
						<path fill="#4A4A4A" d="M15.658,75.236c-0.427,0-0.818,0.195-1.073,0.536c-0.216,0.286-0.307,0.639-0.256,0.993
							c0.051,0.355,0.237,0.669,0.523,0.884l8.421,6.317c0.547,0.41,1.382,0.318,1.825-0.201L37.73,69.03
							c0.233-0.272,0.346-0.619,0.319-0.976c-0.027-0.357-0.192-0.683-0.463-0.915c-0.542-0.465-1.432-0.393-1.895,0.146
							L23.876,81.064l-7.413-5.56C16.229,75.329,15.95,75.236,15.658,75.236z M15.659,47.604c-0.427,0-0.819,0.196-1.075,0.537
							c-0.215,0.287-0.306,0.639-0.255,0.993c0.05,0.355,0.237,0.669,0.524,0.884l8.42,6.316c0.55,0.415,1.383,0.32,1.825-0.199
							L37.73,41.396c0.233-0.272,0.346-0.619,0.319-0.976c-0.027-0.357-0.192-0.682-0.463-0.915
							c-0.541-0.462-1.431-0.391-1.894,0.148L23.876,53.436l-7.414-5.563C16.229,47.697,15.951,47.604,15.659,47.604z
							 M49.737,48.395c-0.74,0-1.342,0.602-1.342,1.342s0.602,1.342,1.342,1.342h33.158c0.74,0,1.342-0.602,1.342-1.342
							s-0.602-1.342-1.342-1.342H49.737z M15.658,21.815c-0.427,0-0.818,0.195-1.074,0.536c-0.215,0.287-0.306,0.639-0.255,0.993
							c0.05,0.355,0.237,0.669,0.524,0.884l8.42,6.317c0.55,0.412,1.382,0.319,1.825-0.201L37.73,15.607
							c0.233-0.272,0.346-0.619,0.319-0.976c-0.027-0.357-0.192-0.682-0.463-0.915c-0.541-0.463-1.431-0.392-1.894,0.148
							L23.876,27.646l-7.414-5.562C16.229,21.908,15.95,21.815,15.658,21.815z M49.737,22.605c-0.74,0-1.342,0.602-1.342,1.342
							c0,0.74,0.602,1.342,1.342,1.342h33.158c0.74,0,1.342-0.602,1.342-1.342c0-0.74-0.602-1.342-1.342-1.342H49.737z"/>
					</g>
				</g>
			</g>
		</g>
	</g>
</g>
</svg>
