<?xml version="1.0" encoding="utf-8"?>
<!-- Generator: Adobe Illustrator 16.0.4, SVG Export Plug-In . SVG Version: 6.00 Build 0)  -->
<!DOCTYPE svg PUBLIC "-//W3C//DTD SVG 1.1//EN" "http://www.w3.org/Graphics/SVG/1.1/DTD/svg11.dtd">
<svg version="1.1" xmlns="http://www.w3.org/2000/svg" xmlns:xlink="http://www.w3.org/1999/xlink" x="0px" y="0px" width="110px"
	 height="110px" viewBox="0 0 110 110" enable-background="new 0 0 110 110" xml:space="preserve">
<g id="Layer_1">
	<g id="Page-1">
		<g id="landing-1" transform="translate(-1083.000000, -895.000000)">
			<g id="featres" transform="translate(0.000000, 632.000000)">
				<g id="line-icons" transform="translate(108.000000, 264.000000)">
					<g id="list-3" transform="translate(975.000000, 0.000000)">
						<g id="Shape">
							<path fill="#4A4A4A" d="M91.97,94.118l11.353,11.875c0.495,0.519,1.377,0.536,1.893,0.043
								c0.259-0.248,0.406-0.582,0.415-0.939c0.008-0.358-0.124-0.697-0.371-0.956L93.951,92.312l0.313-0.346
								c3.263-3.583,5.06-8.202,5.06-13.006c0-10.681-8.688-19.37-19.369-19.37c-10.682,0-19.371,8.689-19.371,19.37
								c0,10.68,8.689,19.368,19.371,19.368c4.223,0,8.254-1.362,11.659-3.94L91.97,94.118z M79.955,95.646
								c-9.202,0-16.689-7.486-16.689-16.688S70.753,62.27,79.955,62.27s16.688,7.486,16.688,16.688S89.157,95.646,79.955,95.646z"
								/>
						</g>
						<g id="Combined-Shape">
							<path fill="#4A4A4A" d="M27.28,2.5c-12.081,0-21.91,9.829-21.91,21.91v54.567c0,12.081,9.829,21.909,21.91,21.909h25.443
								c0.739,0,1.34-0.602,1.34-1.341s-0.601-1.34-1.34-1.34H27.28c-10.603,0-19.229-8.626-19.229-19.229V24.41
								c0-10.603,8.626-19.229,19.229-19.229h54.567c10.603,0,19.229,8.626,19.229,19.229v38.327c0,0.739,0.602,1.34,1.341,1.34
								s1.34-0.601,1.34-1.34V24.41c0-12.081-9.828-21.91-21.909-21.91H27.28z M20.517,77.17c-0.426,0-0.817,0.195-1.072,0.536
								c-0.216,0.286-0.306,0.638-0.256,0.992s0.236,0.667,0.523,0.882l8.414,6.312c0.545,0.412,1.378,0.319,1.82-0.2l12.622-14.723
								c0.234-0.272,0.347-0.618,0.32-0.976c-0.028-0.355-0.192-0.68-0.464-0.912c-0.541-0.463-1.429-0.394-1.89,0.145
								L28.728,82.993l-7.409-5.555C21.085,77.263,20.808,77.17,20.517,77.17z M20.516,49.563c-0.426,0-0.817,0.195-1.072,0.536
								c-0.216,0.286-0.306,0.638-0.256,0.991c0.05,0.355,0.236,0.668,0.523,0.883l8.413,6.312c0.545,0.412,1.378,0.318,1.82-0.201
								L42.567,43.36c0.233-0.271,0.346-0.615,0.319-0.969c-0.027-0.357-0.192-0.683-0.465-0.917
								c-0.54-0.463-1.428-0.394-1.888,0.144l-11.805,13.77l-7.409-5.556C21.085,49.656,20.808,49.563,20.516,49.563z
								 M54.563,50.353c-0.739,0-1.34,0.601-1.34,1.34s0.601,1.34,1.34,1.34h33.128c0.739,0,1.341-0.601,1.341-1.34
								s-0.602-1.34-1.341-1.34H54.563z M20.516,23.796c-0.426,0-0.817,0.195-1.072,0.536c-0.215,0.286-0.306,0.638-0.255,0.992
								c0.05,0.354,0.236,0.668,0.523,0.883l8.413,6.312c0.545,0.412,1.377,0.317,1.82-0.201l12.622-14.725
								c0.233-0.271,0.346-0.615,0.319-0.97c-0.027-0.357-0.192-0.683-0.465-0.917c-0.54-0.465-1.428-0.395-1.888,0.143
								L28.728,29.62l-7.409-5.556C21.085,23.889,20.808,23.796,20.516,23.796z M54.563,24.586c-0.739,0-1.34,0.601-1.34,1.34
								s0.601,1.34,1.34,1.34h33.128c0.739,0,1.341-0.601,1.341-1.34s-0.602-1.34-1.341-1.34H54.563z"/>
						</g>
					</g>
				</g>
			</g>
		</g>
	</g>
</g>
<g id="Layer_3" display="none">
	<g id="Page-1_1_" display="inline">
		<g id="landing-1_1_" transform="translate(-847.000000, -895.000000)">
			<g id="featres_1_" transform="translate(0.000000, 632.000000)">
				<g id="line-icons_1_" transform="translate(108.000000, 264.000000)">
					<g id="list-4" transform="translate(740.000000, 0.000000)">
						<g id="Shape_2_">
							<path fill="#4A4A4A" d="M75.343,81.843c-0.404,0-0.783,0.179-1.038,0.49c-0.229,0.278-0.335,0.628-0.299,0.985
								c0.035,0.355,0.207,0.676,0.484,0.901l8.817,7.239c0.281,0.232,0.648,0.349,1.022,0.292c0.382-0.053,0.716-0.258,0.931-0.564
								L96.707,74.74c0.422-0.608,0.271-1.446-0.335-1.869c-0.593-0.412-1.46-0.251-1.869,0.336L83.887,88.461l-7.694-6.312
								C75.95,81.948,75.656,81.843,75.343,81.843z"/>
						</g>
						<g id="Shape_1_">
							<path fill="#4A4A4A" d="M25.93,2.5C13.837,2.5,4,12.337,4,24.43v54.615c0,12.092,9.837,21.929,21.93,21.929h43.523
								l0.139,0.115c4.2,3.489,9.513,5.411,14.961,5.411C97.481,106.5,108,95.981,108,83.053c0-5.448-1.922-10.761-5.411-14.961
								l-0.115-0.139V24.43c0-12.092-9.837-21.93-21.929-21.93H25.93z M84.553,103.816c-5.104,0-10.024-1.897-13.854-5.342
								c-0.462-0.414-0.902-0.846-1.309-1.282l-0.211-0.231c-0.445-0.495-0.823-0.953-1.183-1.427l-0.244-0.325
								c-0.351-0.483-0.682-0.984-0.983-1.489c-0.089-0.143-0.141-0.225-0.189-0.312c-0.296-0.512-0.574-1.048-0.848-1.636
								c-0.072-0.146-0.103-0.208-0.131-0.272c-0.249-0.554-0.484-1.155-0.695-1.779l-0.08-0.219
								c-0.191-0.581-0.359-1.195-0.516-1.879c-0.033-0.121-0.047-0.171-0.058-0.223c-0.123-0.563-0.224-1.185-0.308-1.896
								c-0.023-0.148-0.032-0.208-0.039-0.27c-0.077-0.719-0.117-1.454-0.117-2.182c0-11.449,9.314-20.764,20.764-20.764
								c0.73,0,1.469,0.04,2.193,0.119c0.056,0.006,0.112,0.016,0.168,0.026c0.796,0.099,1.421,0.201,1.992,0.325
								c0.044,0.009,0.091,0.021,0.137,0.035c0.764,0.176,1.381,0.346,1.963,0.537l0.146,0.052c0.685,0.234,1.291,0.472,1.863,0.729
								l0.243,0.118c0.583,0.271,1.141,0.56,1.661,0.86l0.216,0.13c0.623,0.378,1.115,0.703,1.582,1.042l0.246,0.184
								c0.531,0.402,0.996,0.784,1.441,1.183l0.287,0.264c0.438,0.407,0.875,0.854,1.295,1.322
								c3.437,3.824,5.329,8.738,5.329,13.838C105.316,94.502,96.002,103.816,84.553,103.816z M66.721,98.289H25.93
								c-10.612,0-19.246-8.633-19.246-19.244V24.43c0-10.612,8.633-19.246,19.246-19.246h54.615
								c10.611,0,19.244,8.633,19.244,19.246v40.805l-0.81-0.638c-0.068-0.054-0.141-0.104-0.212-0.153l-0.204-0.145
								c-0.38-0.286-0.758-0.569-1.154-0.831l-0.134-0.082c-0.89-0.577-1.87-1.116-2.908-1.596l-0.41-0.199
								c-0.356-0.156-0.724-0.294-1.094-0.434l-0.252-0.095c-0.212-0.08-0.426-0.16-0.642-0.233c-0.37-0.124-0.748-0.232-1.129-0.34
								c-0.321-0.09-0.646-0.175-0.973-0.25c-0.345-0.079-0.688-0.157-1.038-0.223c-0.414-0.077-0.831-0.137-1.252-0.19L87.3,59.788
								c-0.188-0.026-0.378-0.053-0.569-0.07c-0.77-0.076-1.48-0.112-2.178-0.112c-10.896,0-20.269,7.417-22.793,18.036
								l-0.091,0.385h-8.432c-0.74,0-1.342,0.602-1.342,1.342s0.602,1.343,1.342,1.343h8.003l-0.043,0.539
								c-0.05,0.643-0.092,1.222-0.092,1.803c0,0.667,0.036,1.38,0.11,2.179c0.021,0.217,0.05,0.431,0.08,0.645l0.027,0.202
								c0.055,0.42,0.114,0.835,0.191,1.245c0.065,0.354,0.143,0.701,0.224,1.047c0.076,0.324,0.159,0.644,0.248,0.964
								c0.107,0.383,0.217,0.766,0.345,1.142c0.064,0.194,0.136,0.383,0.208,0.571l0.104,0.278c0.144,0.384,0.287,0.766,0.449,1.139
								l0.17,0.353c0.5,1.085,1.057,2.099,1.655,3.011c0.299,0.458,0.572,0.824,0.846,1.191l0.185,0.257
								c0.049,0.07,0.098,0.141,0.149,0.208L66.721,98.289z"/>
						</g>
						<g id="Combined-Shape_1_">
							<path fill="#4A4A4A" d="M19.158,77.236c-0.427,0-0.818,0.195-1.073,0.536c-0.216,0.286-0.307,0.639-0.256,0.993
								c0.051,0.355,0.237,0.669,0.523,0.884l8.421,6.317c0.547,0.41,1.382,0.318,1.825-0.201L41.23,71.03
								c0.233-0.272,0.346-0.619,0.319-0.976c-0.027-0.357-0.192-0.683-0.463-0.915c-0.542-0.465-1.432-0.393-1.895,0.146
								L27.376,83.064l-7.413-5.56C19.729,77.329,19.45,77.236,19.158,77.236z M19.159,49.604c-0.427,0-0.819,0.196-1.075,0.537
								c-0.215,0.287-0.306,0.639-0.255,0.993c0.05,0.355,0.237,0.669,0.524,0.884l8.42,6.316c0.55,0.415,1.383,0.32,1.825-0.199
								L41.23,43.396c0.233-0.272,0.346-0.619,0.319-0.976c-0.027-0.357-0.192-0.682-0.463-0.915
								c-0.541-0.462-1.431-0.391-1.894,0.148L27.376,55.436l-7.414-5.563C19.729,49.697,19.451,49.604,19.159,49.604z
								 M53.237,50.395c-0.74,0-1.342,0.602-1.342,1.342s0.602,1.342,1.342,1.342h33.158c0.74,0,1.342-0.602,1.342-1.342
								s-0.602-1.342-1.342-1.342H53.237z M19.158,23.815c-0.427,0-0.818,0.195-1.074,0.536c-0.215,0.287-0.306,0.639-0.255,0.993
								c0.05,0.355,0.237,0.669,0.524,0.884l8.42,6.317c0.55,0.412,1.382,0.319,1.825-0.201L41.23,17.607
								c0.233-0.272,0.346-0.619,0.319-0.976c-0.027-0.357-0.192-0.682-0.463-0.915c-0.541-0.463-1.431-0.392-1.894,0.148
								L27.376,29.646l-7.414-5.562C19.729,23.908,19.45,23.815,19.158,23.815z M53.237,24.605c-0.74,0-1.342,0.602-1.342,1.342
								c0,0.74,0.602,1.342,1.342,1.342h33.158c0.74,0,1.342-0.602,1.342-1.342c0-0.74-0.602-1.342-1.342-1.342H53.237z"/>
						</g>
					</g>
				</g>
			</g>
		</g>
	</g>
</g>
<g id="Layer_4" display="none">
	<g id="Page-1_2_" display="inline">
		<g id="landing-1_2_" transform="translate(-107.000000, -902.000000)">
			<g id="featres_2_" transform="translate(0.000000, 632.000000)">
				<g id="line-icons_2_" transform="translate(108.000000, 264.000000)">
					<g id="group-1" transform="translate(0.000000, 7.000000)">
						<g id="Layer_1_1_">
							<g id="Shape_3_">
								<path fill="#4A4A4A" d="M19.52,24.449c-5.072,0-9.198,4.134-9.198,9.216c0,2.893,0.791,5.833,2.228,8.279l0.671,1.142
									l-1.282,0.333c-5.034,1.304-8.496,3.202-10.197,8.626l-1.636,5.894c-0.219,0.727-0.083,1.52,0.349,2.092
									c0.435,0.646,1.239,1.033,2.082,1.033h9.201l-0.313,1.244c-0.061,0.241-0.149,0.482-0.24,0.724
									c-0.063,0.168-0.129,0.335-0.171,0.503l-2.68,9.626c-0.319,1.031-0.086,2.106,0.631,2.978
									c0.67,0.913,1.601,1.372,2.724,1.372h12.421l-0.603,1.396c-0.283,0.656-0.474,1.32-0.677,2.024l-4.319,15.017
									c-0.346,1.467-0.041,2.98,0.852,4.108c0.939,1.188,2.302,1.868,3.74,1.868h79.077c1.478,0,2.9-0.702,3.712-1.832
									c0.994-1.258,1.296-2.756,0.878-4.255l-4.316-14.904c-0.033-0.098-0.146-0.273-0.258-0.384l-0.17-0.169l-0.075-0.228
									c-2.596-7.834-8.907-13.737-16.884-15.792l-1.251-0.209c-1.484-0.411-3.171,0.12-4.225,1.327
									c-4.793,5.412-10.825,5.859-17.104,5.859c-6.278,0-12.31-0.447-17.098-5.854c-1.061-1.215-2.743-1.744-4.229-1.333
									l-1.259,0.313c-5.958,1.552-11.079,5.28-14.412,10.497l-0.295,0.462H11.687c-0.431,0-0.668-0.151-0.913-0.396l-0.293-0.293
									v-0.261c-0.049-0.134-0.103-0.322-0.103-0.562l0.038-0.271l2.674-9.5c2.485-7.839,7.283-10.321,16.449-12.65
									c0.249-0.062,0.399-0.184,0.467-0.251l0.653-0.648l0.7,0.596c0.606,0.516,1.333,0.986,2.162,1.398l0.107,0.061
									c0.052,0.035,0.154,0.039,0.374,0.039c0.386,0,0.764-0.238,0.984-0.623c0.101-0.204,0.123-0.488,0.035-0.752
									c-0.089-0.266-0.28-0.483-0.539-0.612c-5.036-2.609-8.679-9.942-8.679-17.444c0-6.916,5.661-12.543,12.62-12.543
									c1.189,0,2.383,0.173,3.757,0.545l1.094,0.296l-0.43,1.048c-1.11,2.708-1.673,5.571-1.673,8.508
									c0,16.9,10.137,31.177,22.137,31.177c11.847,0,22.239-14.569,22.239-31.177c0-12.178-9.977-22.086-22.239-22.086
									c-7.551,0-14.503,3.763-18.596,10.066l-0.428,0.659l-0.742-0.26c-1.633-0.573-3.356-0.863-5.119-0.863
									c-4.975,0-9.734,2.64-12.42,6.889l-0.667,1.055l-0.884-0.88c-0.086-0.086-0.176-0.133-0.355-0.222
									c-1.339-0.709-2.685-1.02-4.389-1.02L19.52,24.449z M102.178,99.838H23.101c-1.136,0-1.795-0.657-2.043-0.905l-0.092-0.105
									c-0.472-0.626-0.665-1.541-0.479-2.277l4.328-14.947c2.159-7.4,8.146-13.184,15.624-15.094l1.24-0.309
									c0.081-0.03,0.248-0.056,0.422-0.056c0.561,0,1.211,0.285,1.655,0.727c5.407,6.149,11.942,6.654,18.729,6.654
									s13.323-0.505,18.685-6.605c0.649-0.649,1.359-0.896,2.181-0.729l1.279,0.316c7.494,1.942,13.479,7.725,15.63,15.094
									l1.851,6.333c0.063,0.187,0.102,0.232,0.158,0.289l0.182,0.182l2.333,8.009c0.187,0.9-0.002,1.794-0.471,2.415l-0.091,0.104
									C103.973,99.18,103.314,99.838,102.178,99.838z M63.308,60.203c-10.28,0-19.262-12.294-20.022-27.407l-0.064-1.271
									l1.25,0.239c2.423,0.463,4.989,0.698,7.627,0.698c8.036,0,14.488-2.531,17.701-6.944l0.644-0.883l0.823,0.719
									c2.415,2.11,5.353,3.226,8.494,3.226c0.772,0,1.621-0.101,2.329-0.277l1.049-0.261l0.179,1.066
									c0.116,0.695,0.116,1.254,0.116,1.902C83.434,46.562,74.029,60.203,63.308,60.203z M13.057,58.978H2.037l1.798-6.379
									c1.356-4.605,4.201-6.036,9.677-7.341c0.068-0.026,0.294-0.101,0.355-0.15l0.631-0.627l0.691,0.559
									c0.453,0.36,0.815,0.636,1.364,0.909l0.108,0.062c0.052,0.035,0.153,0.038,0.373,0.038c0.386,0,0.763-0.239,0.984-0.623
									c0.257-0.515-0.011-1.147-0.439-1.384c-3.024-1.617-5.144-5.887-5.144-10.375c0-4.055,3.194-7.231,7.272-7.231
									c1.312,0,2.361,0.247,3.388,0.797l0.11,0.038c0.188,0.066,0.242,0.083,0.307,0.083h1.39l-0.442,1.318
									c-0.511,1.524-0.771,3.067-0.771,4.585c0,5.434,1.805,11.01,4.829,14.915l0.939,1.213l-1.489,0.37
									c-6.611,1.642-11.362,3.68-14.618,8.762L13.057,58.978z M52.138,30.427c-2.528,0-5.166-0.264-7.839-0.786l-0.934-0.182
									l0.136-0.942c0.322-2.236,0.974-4.395,1.938-6.417l0.075-0.156l0.123-0.122c0.079-0.079,0.091-0.09,0.122-0.15l0.072-0.143
									c0.041-0.113,0.099-0.246,0.195-0.378c3.488-6.195,10.102-10.04,17.284-10.04c8.764,0,16.461,5.615,19.153,13.973
									l0.344,1.069l-1.101,0.219c-0.669,0.133-1.355,0.2-2.041,0.2c-3.381,0-6.605-1.632-8.625-4.367
									c-0.352-0.448-0.994-0.574-1.464-0.211c-0.276,0.207-0.324,0.331-0.359,0.471l-0.068,0.273l-0.136,0.134
									c-0.031,0.059-0.072,0.13-0.13,0.208C66.53,27.683,60.284,30.427,52.138,30.427z"/>
							</g>
						</g>
					</g>
				</g>
			</g>
		</g>
	</g>
</g>
<g id="Layer_2" display="none">
	<g display="inline">
		<path fill="#4A4A4A" d="M63.414,54.311l-3.977-0.721l3.872-1.224c2.988-0.878,5.378-2.469,7.104-4.728
			c1.725-2.253,2.599-4.948,2.599-8.009c0-5.373-1.697-9.268-5.188-11.905c-2.492-1.882-5.701-3.104-9.547-3.687v-5.946
			c0-1.25-0.634-1.585-1.414-1.585s-1.414,0.335-1.414,1.585v5.635c-0.853-0.056-1.725-0.091-2.631-0.091l-3.41-0.005v-5.539
			c0-1.25-0.634-1.585-1.414-1.585c-0.781,0-1.414,0.335-1.414,1.585v5.535l-9.742-0.014c-0.694,0-1.259,0.565-1.259,1.261v61.04
			c0,0.658,0.506,1.199,1.148,1.257l0.142-0.003h9.711v3.268c0,1.248,0.633,1.571,1.414,1.571c0.78,0,1.414-0.323,1.414-1.571
			v-3.268h6.042v3.268c0,1.248,0.634,1.571,1.414,1.571s1.414-0.323,1.414-1.571v-3.375c4.308-0.435,8.435-2.264,12.293-5.465
			c3.517-2.916,5.226-6.995,5.226-12.472c0-3.624-1.156-6.87-3.438-9.647C70.083,56.708,67.074,54.97,63.414,54.311z M65.253,29.484
			c2.96,2.236,4.46,5.587,4.46,9.961c0,4.273-1.41,7.573-4.191,9.809c-1.544,1.239-3.931,2.641-7.245,3.324V26.484
			C61.002,27.049,63.365,28.058,65.253,29.484z M52.817,25.952c0.906,0,1.777,0.053,2.631,0.129v26.86
			c-0.443,0.027-0.88,0.062-1.35,0.062h-4.692V25.952H52.817z M38.916,25.952h7.663v27.051h-8.661V26.952l-0.016-1.014
			L38.916,25.952z M37.916,84.662V55.437h8.663v29.226H37.916z M49.407,84.662V55.437h6.042v29.226H49.407z M68.083,79.754
			c-3.204,2.758-6.432,4.315-9.807,4.76V55.469c4.744,0.156,7.946,1.267,10.24,3.569c2.64,2.647,3.979,6.067,3.979,10.167
			C72.493,73.686,71.009,77.234,68.083,79.754z"/>
		<path fill="#4A4A4A" d="M54.924,5.527C28.05,5.527,6.188,27.39,6.188,54.264C6.188,81.137,28.05,103,54.924,103
			c26.873,0,48.736-21.863,48.736-48.736C103.66,27.39,81.797,5.527,54.924,5.527z M54.924,100.479
			c-25.483,0-46.215-20.731-46.215-46.215c0-25.483,20.732-46.215,46.215-46.215c25.483,0,46.215,20.732,46.215,46.215
			C101.139,79.747,80.407,100.479,54.924,100.479z"/>
	</g>
</g>
<g id="Layer_5" display="none">
	<g id="Page-1_3_" display="inline">
		<g id="landing-1_3_" transform="translate(-356.000000, -900.000000)">
			<g id="featres_3_" transform="translate(0.000000, 632.000000)">
				<g id="line-icons_3_" transform="translate(108.000000, 264.000000)">
					<g id="list" transform="translate(248.000000, 5.000000)">
						<g id="Shape_4_">
							<path fill="#4A4A4A" d="M19.323,103.5h76.355V28.515L71.962,4.5H19.323V103.5z M93.385,101.166h-71.77V6.833h48.729v23.333
								h23.041V101.166z M91.755,27.833h-19.12V8.472L91.755,27.833z"/>
						</g>
						<g id="Combined-Shape_2_">
							<path fill="#4A4A4A" d="M35.281,74.5c-0.304,0-0.591,0.12-0.808,0.34c-0.45,0.456-0.45,1.198,0,1.654l3.291,3.332
								c0.403,0.409,1.082,0.444,1.52,0.088l8.229-6.668c0.498-0.402,0.578-1.141,0.18-1.646c-0.382-0.484-1.128-0.568-1.606-0.181
								l-7.43,6.021l-2.569-2.601C35.873,74.62,35.585,74.5,35.281,74.5z M51.74,76.166c-0.632,0-1.146,0.524-1.146,1.168
								c0,0.643,0.514,1.166,1.146,1.166h26.333c0.632,0,1.146-0.523,1.146-1.166c0-0.644-0.515-1.168-1.146-1.168H51.74z
								 M35.281,56.167c-0.305,0-0.591,0.12-0.808,0.339c-0.45,0.456-0.45,1.198,0,1.654l3.292,3.334
								c0.401,0.404,1.08,0.442,1.52,0.086l8.229-6.667c0.497-0.403,0.578-1.142,0.18-1.645c-0.38-0.484-1.125-0.57-1.605-0.182
								l-7.431,6.021l-2.568-2.602C35.873,56.287,35.586,56.167,35.281,56.167z M51.74,57.834c-0.632,0-1.146,0.523-1.146,1.166
								s0.514,1.166,1.146,1.166h26.333c0.632,0,1.146-0.523,1.146-1.166s-0.515-1.166-1.146-1.166H51.74z M35.281,37.833
								c-0.304,0-0.591,0.121-0.808,0.34c-0.451,0.456-0.451,1.198,0,1.654l3.292,3.334c0.403,0.407,1.079,0.443,1.52,0.086
								l8.229-6.667c0.497-0.403,0.578-1.141,0.18-1.645c-0.38-0.484-1.125-0.569-1.605-0.182l-7.431,6.021l-2.569-2.601
								C35.873,37.954,35.585,37.833,35.281,37.833z M51.74,39.5c-0.632,0-1.146,0.523-1.146,1.167c0,0.644,0.514,1.167,1.146,1.167
								h26.333c0.632,0,1.146-0.523,1.146-1.167c0-0.643-0.515-1.167-1.146-1.167H51.74z"/>
						</g>
					</g>
				</g>
			</g>
		</g>
	</g>
</g>
</svg>
