<?xml version="1.0" encoding="UTF-8" standalone="no"?>
<svg width="39px" height="45px" viewBox="0 0 39 45" version="1.1" xmlns="http://www.w3.org/2000/svg" xmlns:xlink="http://www.w3.org/1999/xlink">
    <!-- Generator: Sketch 41 (35326) - http://www.bohemiancoding.com/sketch -->
    <title>search</title>
    <desc>Created with Sketch.</desc>
    <defs></defs>
    <g id="Page-1" stroke="none" stroke-width="1" fill="none" fill-rule="evenodd">
        <g id="landing-1" transform="translate(-860.000000, -2221.000000)" fill="#4A4A4A">
            <g id="Group-4" transform="translate(82.000000, 2039.000000)">
                <g id="search" transform="translate(778.000000, 182.000000)">
                    <g id="Layer_1">
                        <path d="M38.0376705,0 L6.53573502,0 C6.02963364,0 5.61923502,0.401308594 5.61923502,0.896396484 L5.61923502,31.5729492 L0.916949309,36.1720898 C-0.244334101,37.3079004 -0.244334101,39.1562402 0.916949309,40.2921387 C1.49763594,40.8600879 2.26047235,41.1440625 3.02321889,41.1440625 C3.78596544,41.1440625 4.54889171,40.8600879 5.12948848,40.2921387 L5.61914516,39.8132227 L5.61914516,44.1036035 C5.61914516,44.5986914 6.02954378,45 6.53564516,45 L30.4893733,45 C30.7324493,45 30.9654608,44.9055176 31.1374562,44.7374707 L38.6855737,37.354834 C38.8573894,37.1867871 38.9539908,36.9587988 38.9539908,36.7209668 L38.9539908,0.896396484 C38.9541705,0.401308594 38.5437719,0 38.0376705,0 Z M3.83341244,39.0243164 C3.38661982,39.4613086 2.65981797,39.4612207 2.21320507,39.0243164 C1.76659217,38.5874121 1.76659217,37.8765527 2.21320507,37.4397363 L10.9946751,28.8508887 L12.6148825,30.4355566 L3.83341244,39.0243164 Z M31.4044355,41.9410547 L31.4003018,37.6118262 L35.8268018,37.6157812 L31.4044355,41.9410547 Z M37.1211705,35.824043 L30.483712,35.8181543 L30.4829032,35.8181543 C30.2398272,35.8181543 30.0067258,35.9126367 29.8348203,36.0806836 C29.6628249,36.2489063 29.5661336,36.477334 29.5664032,36.7153418 L29.5725138,43.207207 L7.45232488,43.207207 L7.45232488,38.0203418 L14.5591313,31.0694238 C14.9170507,30.7193555 14.9170507,30.1517578 14.5591313,29.8016895 L13.7209009,28.9818457 L15.4735645,27.267627 C17.3584147,28.8068555 19.7825253,29.734541 22.4242811,29.734541 C28.4129378,29.734541 33.2850622,24.9692871 33.2850622,19.1119922 C33.2850622,13.2546973 28.4127581,8.48961914 22.4241912,8.48961914 C16.4356244,8.48961914 11.5634101,13.2547852 11.5634101,19.1120801 C11.5634101,21.7415039 12.5457788,24.150498 14.1696705,26.0073633 L12.4246452,27.7141113 L11.6427581,26.949375 C11.4708525,26.7813281 11.2377512,26.6868457 10.9946751,26.6868457 C10.7515991,26.6868457 10.5184977,26.7813281 10.3465922,26.949375 L7.45232488,29.7801563 L7.45232488,1.79279297 L37.1211705,1.79279297 L37.1211705,35.824043 Z M13.3965,19.1120801 C13.3965,14.2433789 17.4462995,10.2824121 22.4241912,10.2824121 C27.4020829,10.2824121 31.4518825,14.2433789 31.4518825,19.1120801 C31.4518825,23.9807812 27.4020829,27.941748 22.4241912,27.941748 C17.4462995,27.941748 13.3965,23.9807812 13.3965,19.1120801 Z" id="Shape"></path>
                        <path d="M27.6024747,18.2605078 L17.337477,18.2605078 C16.8313756,18.2605078 16.420977,18.6618164 16.420977,19.1569043 C16.420977,19.6519922 16.8313756,20.0533008 17.337477,20.0533008 L27.6024747,20.0533008 C28.108576,20.0533008 28.5189747,19.6519922 28.5189747,19.1569043 C28.5189747,18.6618164 28.108576,18.2605078 27.6024747,18.2605078 Z" id="Shape"></path>
                        <path d="M27.6024747,21.7565332 L17.337477,21.7565332 C16.8313756,21.7565332 16.420977,22.1578418 16.420977,22.6529297 C16.420977,23.1480176 16.8313756,23.5493262 17.337477,23.5493262 L27.6024747,23.5493262 C28.1086659,23.5493262 28.5189747,23.1480176 28.5189747,22.6529297 C28.5189747,22.1578418 28.108576,21.7565332 27.6024747,21.7565332 Z" id="Shape"></path>
                        <path d="M21.4618618,14.674834 L17.3375668,14.674834 C16.8314654,14.674834 16.4210668,15.0761426 16.4210668,15.5712305 C16.4210668,16.0663184 16.8314654,16.467627 17.3375668,16.467627 L21.4618618,16.467627 C21.9679631,16.467627 22.3783618,16.0663184 22.3783618,15.5712305 C22.3783618,15.0761426 21.9679631,14.674834 21.4618618,14.674834 Z" id="Shape"></path>
                        <path d="M24.7613157,14.674834 L24.2113618,14.674834 C23.7052604,14.674834 23.2948618,15.0761426 23.2948618,15.5712305 C23.2948618,16.0663184 23.7052604,16.467627 24.2113618,16.467627 L24.7613157,16.467627 C25.2674171,16.467627 25.6778157,16.0663184 25.6778157,15.5712305 C25.6778157,15.0761426 25.2674171,14.674834 24.7613157,14.674834 Z" id="Shape"></path>
                    </g>
                </g>
            </g>
        </g>
    </g>
</svg>